<?xml version="1.0" standalone="no"?>
<!DOCTYPE svg PUBLIC "-//W3C//DTD SVG 20010904//EN"
 "http://www.w3.org/TR/2001/REC-SVG-20010904/DTD/svg10.dtd">
<svg version="1.0" xmlns="http://www.w3.org/2000/svg"
 width="600.000000pt" height="600.000000pt" viewBox="0 0 600.000000 600.000000"
 preserveAspectRatio="xMidYMid meet">

<g transform="translate(0.000000,600.000000) scale(0.100000,-0.100000)"
fill="#000000" stroke="none">
<path d="M1753 5240 c-434 -55 -812 -328 -1004 -725 -91 -188 -129 -358 -129
-575 0 -435 138 -807 436 -1180 112 -139 409 -430 721 -703 613 -539 867 -805
1136 -1189 45 -64 85 -117 89 -118 3 0 54 69 112 152 258 375 530 664 1096
1168 313 278 638 598 744 730 270 339 397 645 426 1025 31 405 -98 764 -375
1040 -192 193 -398 302 -676 362 -117 25 -372 24 -488 -1 -181 -39 -323 -97
-467 -192 -103 -67 -242 -197 -317 -296 -28 -37 -54 -68 -57 -68 -3 1 -23 26
-45 57 -173 244 -473 433 -790 498 -95 20 -311 27 -412 15z m358 -205 c289
-50 562 -230 721 -474 27 -42 77 -132 110 -201 l60 -125 71 146 c83 168 140
252 240 351 207 205 435 304 727 315 272 10 498 -57 699 -207 205 -154 349
-365 417 -615 25 -93 28 -114 28 -290 0 -158 -4 -206 -22 -287 -70 -318 -215
-575 -496 -878 -120 -130 -268 -269 -609 -572 -446 -396 -798 -761 -995 -1030
-32 -43 -59 -77 -62 -77 -3 0 -35 39 -72 87 -191 248 -486 551 -873 895 -460
409 -516 460 -665 613 -406 417 -572 778 -573 1249 0 177 18 280 75 424 136
344 458 610 817 675 102 19 299 19 402 1z"/>
</g>
</svg>
