<?xml version="1.0" standalone="no"?>
<!DOCTYPE svg PUBLIC "-//W3C//DTD SVG 20010904//EN"
 "http://www.w3.org/TR/2001/REC-SVG-20010904/DTD/svg10.dtd">
<svg version="1.0" xmlns="http://www.w3.org/2000/svg"
 width="982.000000pt" height="589.000000pt" viewBox="0 0 982.000000 589.000000"
 preserveAspectRatio="xMidYMid meet">

<g transform="translate(0.000000,589.000000) scale(0.100000,-0.100000)"
fill="#000000" stroke="none">
<path d="M1395 5446 c-100 -45 -145 -184 -92 -286 43 -84 119 -110 202 -70 43
21 65 44 52 56 -3 3 -22 -4 -43 -15 -97 -52 -174 7 -174 133 0 101 41 161 110
161 42 0 77 -25 82 -58 2 -11 9 -22 16 -25 8 -2 12 10 12 43 0 43 -2 47 -35
61 -42 17 -90 17 -130 0z"/>
<path d="M2010 5449 c-107 -45 -144 -233 -64 -328 49 -58 135 -64 195 -14 46
39 69 96 69 173 0 73 -20 122 -61 153 -31 23 -104 31 -139 16z m99 -44 c41
-35 58 -112 42 -191 -17 -86 -61 -124 -119 -103 -47 16 -67 62 -67 154 0 88
19 139 58 155 36 14 54 11 86 -15z"/>
<path d="M2473 5445 c-33 -14 -63 -59 -63 -95 0 -37 27 -75 72 -99 62 -34 78
-51 78 -80 0 -34 -10 -48 -43 -60 -40 -15 -76 2 -83 39 -10 48 -34 38 -34 -14
0 -40 3 -45 31 -55 43 -15 61 -14 109 5 44 18 70 55 70 101 0 40 -22 67 -84
102 -30 17 -57 38 -60 47 -13 33 -6 64 19 80 35 23 77 7 89 -34 13 -46 26 -39
26 13 0 40 -3 47 -26 55 -34 13 -63 12 -101 -5z"/>
<path d="M4483 5440 c-39 -23 -53 -48 -53 -92 0 -41 21 -73 63 -94 47 -24 87
-65 87 -89 0 -30 -34 -58 -70 -58 -37 0 -60 19 -60 49 0 15 -6 24 -15 24 -11
0 -15 -12 -15 -45 0 -40 3 -47 28 -56 36 -14 99 -5 131 19 14 10 32 35 40 55
20 54 2 91 -66 129 -67 38 -90 69 -77 105 20 57 114 47 114 -12 0 -16 6 -25
15 -25 11 0 15 12 15 45 0 40 -3 47 -26 55 -39 15 -76 12 -111 -10z"/>
<path d="M563 5444 c-20 -9 -15 -22 10 -26 22 -3 22 -3 19 -169 l-3 -166 88
-5 c48 -3 94 -3 100 0 15 5 37 78 28 92 -11 18 -22 10 -28 -19 -6 -28 -8 -29
-71 -33 l-65 -3 2 165 2 165 -35 2 c-19 1 -41 0 -47 -3z"/>
<path d="M928 5348 c-29 -57 -56 -112 -59 -123 -4 -11 -19 -47 -33 -79 -27
-59 -25 -83 7 -70 14 5 31 41 62 132 3 7 24 12 59 12 l54 0 7 -36 c9 -48 35
-102 53 -109 18 -7 82 13 82 26 0 5 -11 9 -25 9 -17 0 -29 9 -39 28 -13 25
-45 158 -64 262 -6 36 -12 46 -29 48 -19 3 -30 -12 -75 -100z m66 -18 c4 -28
9 -57 12 -65 5 -12 -3 -15 -41 -15 -26 0 -45 4 -43 8 23 58 54 122 59 122 4 0
9 -23 13 -50z"/>
<path d="M1613 5443 c-13 -2 -23 -11 -23 -19 0 -8 9 -13 23 -11 l22 2 -2 -167
-1 -168 23 0 c22 0 24 4 31 90 l7 90 33 -55 c71 -118 99 -142 149 -125 40 13
46 30 12 30 -25 0 -68 41 -110 104 l-26 40 28 17 c66 40 83 120 35 158 -22 17
-40 21 -103 20 -42 -1 -86 -4 -98 -6z m160 -41 c40 -35 0 -122 -58 -122 -24 0
-25 2 -25 69 0 47 4 71 13 74 18 6 49 -4 70 -21z"/>
<path d="M2258 5443 c-27 -7 -21 -23 7 -23 l26 0 -3 -170 -3 -170 27 0 26 0 4
168 c2 92 0 175 -4 185 -8 16 -40 21 -80 10z"/>
<path d="M2648 5443 c-27 -7 -22 -23 7 -23 l25 0 0 -170 0 -170 24 0 23 0 5
172 c3 94 4 178 1 185 -5 13 -49 16 -85 6z"/>
<path d="M2813 5443 c-24 -4 -33 -35 -10 -32 40 5 39 5 32 -165 l-7 -164 88
-4 c49 -2 94 -2 101 0 12 4 33 54 33 78 0 23 -28 15 -32 -8 -3 -21 -10 -24
-71 -28 l-67 -5 0 68 0 67 60 0 c50 0 60 3 60 18 0 14 -8 17 -55 14 l-55 -4 0
71 0 71 39 0 c58 0 71 -8 71 -42 0 -49 25 -27 28 25 l3 47 -98 -1 c-54 -1
-108 -4 -120 -6z"/>
<path d="M3093 5443 c-13 -2 -23 -11 -23 -19 0 -8 9 -13 23 -11 l22 2 -2 -167
-3 -168 25 0 c22 0 25 4 25 38 0 20 3 61 7 90 l6 53 30 -53 c68 -120 99 -146
152 -128 40 13 46 30 12 30 -31 0 -48 15 -96 84 l-41 59 29 18 c66 40 83 120
35 158 -22 17 -40 21 -103 20 -42 -1 -86 -4 -98 -6z m162 -46 c8 -12 15 -32
15 -45 0 -31 -43 -72 -75 -72 -24 0 -25 2 -25 69 0 45 4 71 12 73 23 8 59 -4
73 -25z"/>
<path d="M3397 5443 c-29 -5 -33 -28 -4 -28 34 0 37 -18 30 -177 l-8 -156 90
-4 c50 -3 95 -3 102 -1 12 5 33 55 33 79 0 24 -28 15 -34 -10 -5 -22 -12 -25
-71 -28 l-65 -3 0 68 0 67 60 0 c50 0 60 3 60 18 0 14 -8 17 -55 14 l-55 -4 0
71 0 71 39 0 c58 0 71 -8 71 -42 0 -49 25 -27 28 25 l3 47 -98 -1 c-54 -1
-111 -4 -126 -6z"/>
<path d="M3793 5443 c-13 -2 -23 -11 -23 -19 0 -8 9 -13 23 -11 l22 2 -2 -167
-2 -168 42 -2 c129 -6 184 20 224 109 21 44 24 66 21 114 -8 110 -62 150 -198
148 -47 -1 -95 -4 -107 -6z m181 -33 c42 -16 66 -66 66 -138 0 -113 -41 -162
-136 -162 l-47 0 6 68 c4 37 7 106 7 155 l0 87 39 0 c22 0 51 -4 65 -10z"/>
<path d="M4153 5443 c-13 -2 -23 -11 -23 -19 0 -8 9 -13 23 -11 l22 2 -2 -167
-2 -168 67 0 c37 0 77 -3 89 -6 29 -8 63 27 63 66 0 36 -27 42 -32 8 -3 -20
-10 -24 -68 -29 -36 -3 -67 -4 -68 -3 -2 1 -1 32 3 68 l7 65 57 3 c41 2 56 7
56 17 0 12 -13 14 -58 12 l-58 -2 3 68 3 68 50 0 c49 0 50 -1 53 -32 2 -21 9
-33 18 -33 10 0 14 13 14 50 l0 50 -97 -1 c-54 -1 -108 -4 -120 -6z"/>
<path d="M3640 4658 c-61 -31 -90 -77 -90 -142 0 -72 23 -103 120 -160 92 -54
114 -86 99 -140 -13 -45 -33 -59 -92 -64 -69 -5 -97 17 -97 78 0 33 -4 40 -19
40 -22 0 -31 -26 -31 -93 0 -45 2 -49 35 -63 47 -19 132 -17 181 5 97 44 132
164 70 238 -13 16 -57 46 -96 68 -81 45 -104 71 -104 123 0 70 89 107 148 61
19 -15 26 -30 26 -55 0 -27 4 -34 19 -34 21 0 31 26 31 82 0 47 -31 70 -103
75 -40 3 -62 -1 -97 -19z"/>
<path d="M4656 4671 c-4 -6 0 -21 8 -33 22 -30 20 -77 -5 -150 -24 -73 -120
-280 -126 -274 -3 3 -20 76 -38 163 -64 301 -70 310 -181 282 -32 -8 -44 -16
-44 -30 0 -15 8 -19 40 -19 28 0 42 -5 49 -18 14 -26 55 -194 87 -354 l27
-138 28 0 c25 0 33 10 86 108 127 237 184 402 151 444 -16 22 -73 34 -82 19z"/>
<path d="M6320 4658 c-60 -31 -90 -77 -90 -140 0 -67 20 -99 82 -138 138 -86
153 -104 137 -165 -12 -43 -46 -65 -101 -65 -62 0 -88 24 -88 80 0 32 -4 40
-19 40 -19 0 -31 -34 -31 -86 0 -20 -5 -24 -29 -24 -40 0 -70 27 -140 129 -60
87 -60 89 -37 95 32 8 83 52 101 87 8 15 15 50 15 78 0 42 -5 54 -30 80 -39
38 -78 46 -199 37 -128 -8 -151 -14 -151 -37 0 -13 9 -19 38 -21 l37 -3 -4
-252 -3 -253 33 6 c19 4 36 9 38 11 3 2 7 63 10 135 l6 132 57 -96 c32 -52 78
-116 102 -142 49 -50 75 -56 131 -32 25 10 36 10 62 -1 18 -7 56 -13 85 -13
101 1 181 60 193 143 13 82 -23 129 -155 200 -57 31 -82 72 -73 120 18 92 173
85 173 -9 0 -27 4 -34 19 -34 23 0 31 19 31 76 0 36 -5 47 -26 61 -43 28 -121
28 -174 1z m-304 -59 c18 -17 24 -33 24 -65 0 -80 -41 -124 -115 -124 l-38 0
6 68 c4 37 7 87 7 111 l0 44 46 -6 c28 -3 54 -13 70 -28z"/>
<path d="M4108 4653 c-9 -10 -41 -74 -73 -143 -31 -69 -63 -132 -71 -141 -8
-8 -14 -22 -14 -31 0 -8 -20 -58 -45 -111 -51 -110 -54 -127 -22 -127 39 0 51
17 87 117 l35 98 81 3 82 3 7 -37 c10 -58 45 -144 66 -165 23 -23 56 -24 108
-3 48 19 46 44 -5 44 -57 0 -74 41 -130 319 -19 95 -37 178 -40 182 -9 15 -50
10 -66 -8z m35 -210 l13 -73 -67 0 -68 0 47 101 c53 115 48 116 75 -28z"/>
<path d="M4900 4660 c-63 -4 -118 -8 -122 -9 -5 0 -8 -10 -8 -21 0 -16 7 -20
37 -20 l36 0 -6 -252 -6 -253 137 1 c75 1 143 2 150 3 18 2 42 63 42 106 0 28
-4 35 -19 35 -14 0 -21 -10 -25 -35 -4 -19 -15 -39 -25 -44 -9 -5 -55 -10
-102 -10 l-84 1 6 101 c4 56 7 102 8 102 1 0 34 -1 74 -3 58 -3 77 -1 90 12
31 31 11 46 -53 39 -32 -3 -70 -3 -84 1 -26 6 -26 7 -26 101 l0 95 79 0 c86 0
91 -4 91 -61 0 -22 5 -29 19 -29 15 0 19 10 24 62 9 96 19 93 -233 78z"/>
<path d="M5232 4658 c-32 -7 -42 -14 -40 -26 2 -12 14 -17 38 -17 41 0 38 21
25 -237 -7 -129 -6 -153 10 -193 44 -117 188 -113 271 7 l32 47 7 -53 c8 -71
30 -91 86 -82 52 8 79 22 79 41 0 11 -11 15 -39 15 -26 0 -41 5 -45 16 -8 20
-6 283 2 397 6 78 5 88 -10 93 -33 10 -57 -5 -62 -39 -3 -18 -7 -81 -10 -142
-7 -150 -46 -256 -108 -297 -49 -32 -108 -24 -127 18 -15 35 -15 176 0 323 12
107 11 115 -6 127 -21 16 -41 16 -103 2z"/>
<path d="M4298 3625 c-3 -3 23 -75 58 -160 35 -84 64 -158 64 -163 0 -5 -45
-15 -100 -22 -55 -7 -100 -16 -100 -21 0 -4 51 -10 112 -11 l113 -3 18 -38
c27 -57 26 -80 -2 -87 -43 -10 -37 -30 8 -30 28 0 44 -5 48 -15 3 -9 3 -18 0
-21 -3 -3 -158 -39 -344 -80 -186 -40 -371 -81 -411 -90 -70 -15 -73 -17 -88
-54 -14 -36 -20 -40 -62 -45 -79 -11 -81 -12 -84 -58 l-3 -42 -355 -62 c-343
-60 -425 -70 -487 -57 -24 5 -32 15 -52 67 -13 34 -32 77 -42 95 -11 18 -19
48 -19 66 0 25 -6 35 -25 44 -35 16 -108 14 -180 -6 -58 -17 -60 -18 -63 -53
-3 -31 -7 -38 -32 -42 -22 -5 -55 -40 -149 -160 l-121 -155 -97 -17 -98 -17
-73 -72 c-62 -61 -71 -75 -66 -98 6 -31 0 -34 -91 -43 -90 -10 -90 -10 -151
-96 -31 -44 -66 -86 -78 -94 -25 -17 -71 -93 -62 -103 4 -3 19 -6 34 -7 17 0
28 -6 30 -17 3 -15 -4 -18 -32 -18 -31 0 -36 -3 -36 -24 0 -21 -6 -24 -52 -30
-29 -3 -69 -6 -88 -6 -30 0 -40 -7 -65 -43 -16 -23 -30 -46 -30 -52 0 -6 29
-9 73 -7 67 4 74 2 70 -15 -3 -18 -11 -19 -165 -22 -27 -1 -36 -8 -59 -46 -33
-57 -29 -88 25 -201 38 -81 108 -185 133 -200 23 -14 -32 -22 -159 -23 -100
-1 -123 -4 -123 -15 0 -18 -16 -22 -97 -31 -52 -6 -63 -10 -63 -25 0 -19 13
-20 266 -6 66 4 70 3 70 -17 -1 -20 3 -21 89 -19 50 2 308 -6 575 -18 267 -11
496 -20 510 -21 23 -1 23 -1 -5 -9 -16 -4 -42 -11 -57 -14 -16 -4 -28 -13 -28
-21 0 -11 29 -13 168 -12 255 3 598 -12 792 -35 145 -17 218 -20 424 -16 225
3 249 6 261 22 13 17 21 17 187 2 432 -40 1297 -59 1458 -32 184 31 430 32
430 1 0 -22 48 -26 208 -19 116 5 153 4 148 -4 -4 -7 -18 -12 -31 -12 -28 0
-37 -11 -25 -29 6 -10 23 -12 66 -7 33 3 177 11 322 16 201 8 300 7 420 -2
235 -19 419 -12 717 27 168 23 215 34 215 52 0 13 16 15 108 12 59 -1 227 -2
375 -1 254 2 267 3 267 21 0 17 -13 19 -182 24 -101 3 -259 11 -353 16 -93 5
-222 13 -286 17 l-117 6 -9 31 c-6 24 -16 33 -48 41 l-39 11 299 226 c292 219
780 551 998 678 72 42 107 69 107 81 0 18 -73 30 -316 49 -108 8 -563 -1 -884
-18 -107 -6 -244 -14 -305 -17 l-110 -6 -103 46 c-57 25 -120 48 -140 51 -53
9 -112 36 -112 51 0 7 -39 31 -86 54 -64 29 -100 40 -135 40 -47 0 -48 1 -43
28 4 26 -1 30 -106 87 -70 38 -110 66 -110 76 0 9 -3 30 -6 47 -6 28 -3 32 32
49 77 36 54 63 -120 137 -104 45 -295 106 -329 106 -9 0 -26 13 -38 30 -68 92
-476 153 -814 121 -112 -10 -125 -9 -172 9 -59 22 -252 50 -347 50 -44 0 -67
5 -76 15 -10 12 -7 15 14 21 38 9 32 23 -13 30 -32 5 -45 14 -65 45 -32 48
-32 49 -1 49 43 0 30 28 -17 37 -42 8 -44 11 -153 180 -60 95 -113 172 -116
172 -3 1 -8 -1 -11 -4z m146 -237 c54 -86 55 -88 30 -88 -26 0 -33 13 -86 145
-24 63 -15 53 56 -57z m39 -115 c-7 -2 -19 -2 -25 0 -7 3 -2 5 12 5 14 0 19
-2 13 -5z m76 -64 c17 -28 30 -53 28 -56 -3 -2 -20 -6 -39 -9 -34 -6 -35 -5
-56 45 l-21 52 22 9 c12 5 25 9 28 9 3 1 20 -22 38 -50z m81 -131 c0 -4 -6 -8
-12 -8 -7 0 -29 -3 -49 -6 -31 -5 -37 -3 -42 15 -4 17 -1 21 21 21 15 0 34 5
42 10 11 7 19 5 28 -7 6 -9 12 -20 12 -25z m315 -43 c54 -8 103 -19 107 -23 5
-5 -33 -14 -84 -21 -51 -6 -360 -53 -686 -103 -326 -49 -596 -87 -600 -84 -3
4 -1 15 4 24 10 16 176 55 849 201 111 24 273 26 410 6z m865 -58 c123 -26
215 -60 224 -83 4 -10 -9 -7 -42 10 -125 63 -431 96 -695 76 -84 -6 -507 -64
-942 -128 l-790 -117 -3 -67 c-2 -38 -7 -68 -13 -68 -6 0 -9 31 -7 77 l3 77
540 83 c1108 170 1144 174 1420 168 149 -4 215 -10 305 -28z m-538 -61 c4 -54
-18 -58 -25 -4 -3 23 -3 46 0 51 9 16 21 -7 25 -47z m114 37 c-3 -10 -8 -30
-12 -45 -3 -16 -12 -28 -19 -28 -9 0 -10 10 -2 45 6 27 16 45 24 45 9 0 12 -7
9 -17z m124 7 c0 -18 -30 -70 -40 -70 -13 0 -13 4 7 45 16 34 33 46 33 25z
m110 -14 c0 -16 -28 -42 -36 -33 -8 7 14 47 26 47 6 0 10 -6 10 -14z m96 -15
c-4 -6 -14 -11 -22 -11 -12 0 -13 4 -3 21 7 14 14 18 21 11 6 -6 7 -15 4 -21z
m-550 -16 c17 -41 17 -45 3 -45 -5 0 -17 16 -25 35 -17 41 -17 45 -3 45 5 0
17 -16 25 -35z m-98 0 c15 -32 15 -45 2 -45 -12 0 -41 55 -33 64 12 11 20 6
31 -19z m762 16 c0 -12 -20 -25 -27 -18 -7 7 6 27 18 27 5 0 9 -4 9 -9z m-850
-58 c0 -22 -16 -14 -29 13 -15 34 -2 54 15 23 7 -13 13 -30 14 -36z m-126 -15
c-4 -6 -14 -1 -25 13 -23 31 -11 49 13 20 10 -13 15 -28 12 -33z m921 22 c0
-19 -90 -33 -2310 -365 -940 -141 -1726 -258 -1745 -261 l-35 -6 20 20 c17 18
225 53 1650 276 1854 291 2140 335 2280 346 126 9 140 8 140 -10z m164 4 c196
-28 365 -78 530 -155 57 -27 102 -51 100 -53 -2 -3 -38 11 -78 31 -152 72
-381 134 -580 156 -66 8 -106 17 -109 25 -5 16 8 15 137 -4z m-1159 -67 c0 -4
8 -3 18 2 27 15 175 31 267 30 l80 -1 -150 -24 c-82 -13 -174 -26 -202 -30
l-53 -6 0 44 0 43 20 -25 c11 -14 20 -29 20 -33z m1188 17 c198 -29 501 -122
563 -173 38 -31 -3 -32 -48 -2 -40 27 -163 74 -277 106 -94 26 -212 45 -330
52 -94 5 -106 8 -90 20 23 17 53 16 182 -3z m-232 -16 c-18 -29 -51 -136 -44
-143 3 -3 51 0 107 6 120 13 243 2 403 -37 153 -37 298 -83 298 -95 0 -7 -7
-8 -17 -4 -38 15 -283 74 -372 89 -106 18 -247 21 -336 6 -33 -5 -197 -26
-365 -45 -168 -20 -1061 -130 -1985 -246 -1732 -217 -1945 -242 -1954 -234 -2
3 0 10 6 16 8 8 3648 508 3704 509 4 0 9 -10 12 -21 5 -18 11 -21 39 -16 18 3
93 9 165 13 177 9 201 29 108 87 -29 18 -45 36 -45 49 0 30 -54 21 -58 -9 -4
-25 -32 -32 -32 -8 0 10 -10 15 -30 15 -20 0 -30 -5 -30 -15 0 -8 -6 -15 -12
-15 -7 0 -30 -3 -50 -6 -34 -6 -38 -4 -38 15 0 11 1 21 3 22 6 2 514 87 525
88 10 1 9 -4 -2 -21z m-1204 -38 c4 -26 1 -30 -19 -30 -20 0 -23 5 -23 40 0
37 2 40 19 31 10 -6 21 -24 23 -41z m148 3 c0 -7 -6 -13 -14 -13 -9 0 -12 8
-8 26 3 19 7 22 13 12 5 -7 9 -19 9 -25z m-2220 -98 c0 -77 -4 -125 -10 -125
-6 0 -10 48 -10 125 0 77 4 125 10 125 6 0 10 -48 10 -125z m1817 83 c6 -7 14
-23 17 -35 7 -21 4 -23 -28 -23 -36 0 -36 0 -36 45 0 41 2 45 18 36 10 -5 23
-16 29 -23z m1563 17 c0 -24 -28 -85 -39 -85 -5 0 -2 23 7 50 15 48 32 66 32
35z m230 -20 c0 -20 -22 -65 -32 -65 -11 0 -10 11 3 49 11 32 29 42 29 16z
m-2020 -82 c0 -8 -13 -13 -30 -13 -29 0 -30 1 -30 52 l0 52 30 -40 c16 -21 30
-45 30 -51z m379 53 c-2 -2 -21 -6 -41 -9 -43 -7 -52 10 -10 19 15 3 32 7 37
8 10 3 21 -12 14 -18z m1737 8 c-3 -9 -9 -27 -12 -40 -7 -28 -24 -32 -24 -6 0
34 13 62 27 62 10 0 13 -6 9 -16z m84 -19 c0 -20 -22 -65 -32 -65 -11 0 -10
11 3 49 11 32 29 42 29 16z m-3920 -2 c0 -5 -9 -42 -20 -83 -32 -123 -48 -113
163 -106 l182 6 -305 -55 c-168 -30 -309 -53 -313 -52 -7 2 157 221 198 266 7
7 28 17 46 21 47 11 49 11 49 3z m38 -80 l-3 -88 -29 -3 c-21 -3 -27 0 -24 10
3 7 13 48 23 91 10 42 23 77 27 77 5 0 7 -39 6 -87z m1442 21 c0 -18 -17 -34
-36 -34 -2 0 -4 24 -4 53 l0 52 20 -25 c11 -14 20 -35 20 -46z m320 46 c0 -11
-4 -20 -10 -20 -5 0 -10 9 -10 20 0 11 5 20 10 20 6 0 10 -9 10 -20z m48 3
c-5 -25 -28 -28 -28 -4 0 12 6 21 16 21 9 0 14 -7 12 -17z m2146 -37 c-6 -27
-21 -42 -31 -33 -3 3 0 22 7 42 14 42 35 34 24 -9z m-3730 -34 c14 -37 26 -71
26 -75 0 -4 -13 -7 -30 -7 l-30 0 0 75 c0 41 2 75 4 75 2 0 16 -30 30 -68z
m2497 36 c7 -26 7 -26 -75 -37 -44 -6 -97 -14 -117 -17 -31 -4 -37 -2 -42 15
-5 21 -9 20 94 36 14 2 31 -1 38 -8 8 -8 11 -6 11 10 0 16 7 23 28 26 45 7 55
3 63 -25z m266 -5 c31 -24 33 -28 17 -34 -11 -4 -52 -8 -91 -8 l-73 -1 0 29
c0 26 4 30 33 34 68 8 79 6 114 -20z m146 5 c27 -20 28 -22 11 -29 -45 -18
-92 -10 -122 21 l-30 30 55 0 c40 0 63 -6 86 -22z m893 -20 c-3 -17 -8 -34
-11 -36 -11 -11 -16 9 -10 37 9 42 29 41 21 -1z m-2456 12 c0 -5 -7 -10 -15
-10 -8 0 -15 5 -15 10 0 6 7 10 15 10 8 0 15 -4 15 -10z m858 -23 l22 -32 -32
-6 c-43 -7 -48 -3 -48 30 0 51 25 55 58 8z m-1088 -1 c0 -22 -6 -26 -45 -32
-43 -6 -76 3 -47 13 6 3 12 11 12 18 0 16 16 23 53 24 22 1 27 -3 27 -23z
m-192 -18 c-4 -46 -28 -49 -28 -4 0 26 4 36 16 36 11 0 14 -8 12 -32z m-50
-10 c-2 -28 -8 -34 -30 -36 -25 -3 -28 0 -28 26 0 35 6 42 37 42 21 0 24 -4
21 -32z m3002 20 c0 -19 -18 -43 -25 -36 -9 9 4 48 16 48 5 0 9 -6 9 -12z
m-3080 -33 c0 -24 -5 -35 -14 -35 -8 0 -21 -3 -30 -6 -13 -5 -16 1 -16 29 0
25 5 37 18 40 37 10 42 7 42 -28z m1105 5 c20 -38 19 -40 -10 -40 -22 0 -25 4
-25 35 0 43 14 45 35 5z m-1185 -19 c0 -21 -6 -30 -22 -35 -36 -9 -38 -8 -38
29 0 32 2 35 30 35 26 0 30 -3 30 -29z m-82 -13 c-2 -28 -8 -34 -30 -36 -25
-3 -28 0 -28 26 0 35 6 42 37 42 21 0 24 -4 21 -32z m-78 -13 c0 -32 -2 -35
-30 -35 -26 0 -30 3 -30 29 0 28 10 36 48 40 7 1 12 -12 12 -34z m1120 5 c21
-29 21 -30 1 -30 -10 0 -26 -3 -35 -6 -13 -5 -16 1 -16 30 0 45 20 48 50 6z
m1760 10 c69 -5 165 -18 215 -27 85 -16 88 -18 50 -24 -38 -6 -37 -7 15 -7 83
-1 220 -34 270 -66 29 -18 36 -26 20 -21 -52 13 -464 17 -710 6 -140 -6 -385
-25 -544 -43 -244 -26 -297 -29 -335 -19 -41 10 -220 -8 -1581 -163 -844 -97
-1553 -178 -1575 -181 -34 -5 -43 -11 -53 -37 -6 -17 -10 -33 -9 -35 2 -2
2016 185 3657 340 69 7 110 13 93 15 -30 3 -33 6 -33 38 0 43 10 43 49 -1 l31
-36 0 41 c0 50 16 52 66 8 l38 -33 -40 -7 c-39 -7 23 -4 306 12 85 5 229 10
320 12 91 1 128 4 83 5 -65 3 -83 7 -83 18 0 12 14 15 63 14 111 0 199 -14
212 -32 9 -13 28 -17 73 -17 33 0 64 -4 67 -10 3 -5 32 -10 64 -10 39 0 76 -8
109 -22 l51 -23 -382 -2 c-390 -1 -893 -25 -928 -44 -27 -14 -24 -33 12 -63
28 -24 37 -26 88 -21 280 27 903 49 1189 42 l233 -5 90 -39 91 -38 -248 -7
c-137 -4 -339 -11 -449 -16 -110 -5 -207 -6 -215 -2 -8 4 -514 -21 -1125 -56
-610 -35 -1125 -63 -1142 -64 l-33 0 0 74 c0 41 -3 77 -7 79 -5 2 -586 -43
-1293 -102 l-1284 -106 -60 -96 -59 -97 -159 -7 c-88 -4 -161 -5 -164 -3 -2 3
5 16 16 31 19 24 26 26 150 32 l130 8 34 56 c19 30 32 59 30 63 -3 5 -34 8
-70 8 l-65 0 18 30 c9 17 24 32 33 35 8 3 34 32 56 64 l42 58 91 9 c73 8 90 7
86 -3 -3 -7 -8 -19 -11 -27 -4 -10 0 -13 13 -10 23 5 3380 394 3404 394 15 0
19 8 19 35 l0 34 45 -17 c42 -15 49 -15 106 0 60 16 61 16 56 -4 -6 -20 -3
-21 76 -14 163 13 177 16 177 41 0 22 17 35 46 35 20 0 17 -38 -3 -44 -21 -6
147 2 195 10 26 4 32 10 32 29 0 22 5 24 53 28 28 2 57 4 62 5 6 1 66 -3 135
-8z m-2960 -31 c0 -24 -3 -30 -16 -25 -9 3 -22 6 -30 6 -8 0 -14 10 -14 25 0
21 5 25 30 25 27 0 30 -3 30 -31z m-80 0 c0 -18 -4 -20 -27 -14 -36 9 -41 14
-23 25 26 17 50 11 50 -11z m2700 1 c0 -15 -7 -20 -25 -20 -18 0 -25 5 -25 20
0 15 7 20 25 20 18 0 25 -5 25 -20z m-2780 0 c0 -5 -10 -10 -22 -10 -19 0 -20
2 -8 10 19 13 30 13 30 0z m1104 -12 c18 -25 7 -38 -31 -38 -19 0 -23 6 -23
30 0 23 5 30 19 30 11 0 27 -10 35 -22z m134 0 c-3 -7 -12 -14 -21 -16 -12 -2
-15 1 -11 12 7 19 38 22 32 4z m1272 -18 c0 -16 -7 -20 -35 -20 -40 0 -50 26
-12 33 42 8 47 7 47 -13z m-2670 -20 c0 -36 -24 -41 -41 -9 -9 17 -8 23 2 30
26 16 39 9 39 -21z m80 5 c0 -21 -5 -25 -30 -25 -25 0 -30 4 -30 25 0 21 5 25
30 25 25 0 30 -4 30 -25z m934 3 c22 -32 20 -38 -14 -38 -27 0 -30 3 -30 30 0
36 22 40 44 8z m-1106 -49 c-7 -5 -21 -9 -31 -9 -30 0 -18 53 13 60 21 5 26 2
28 -18 2 -14 -2 -29 -10 -33z m250 49 c-7 -20 -58 -23 -58 -4 0 11 10 16 31
16 20 0 29 -4 27 -12z m1012 -3 c0 -8 -4 -15 -10 -15 -5 0 -10 7 -10 15 0 8 5
15 10 15 6 0 10 -7 10 -15z m-957 -2 c-7 -2 -19 -2 -25 0 -7 3 -2 5 12 5 14 0
19 -2 13 -5z m-373 -33 c0 -23 -4 -30 -20 -30 -16 0 -20 7 -20 30 0 23 4 30
20 30 16 0 20 -7 20 -30z m2325 10 c18 -19 17 -20 -3 -20 -15 0 -22 6 -22 20
0 11 2 20 3 20 2 0 12 -9 22 -20z m-2387 -17 c-2 -20 -9 -29 -25 -31 -18 -3
-23 1 -23 21 0 29 7 37 32 37 15 0 19 -6 16 -27z m992 2 c0 -14 -4 -25 -10
-25 -5 0 -10 11 -10 25 0 14 5 25 10 25 6 0 10 -11 10 -25z m-1060 -15 c0 -23
-4 -30 -20 -30 -14 0 -20 7 -20 23 0 27 7 37 27 37 8 0 13 -12 13 -30z m2255
-4 c19 -15 19 -15 -11 -16 -30 0 -44 13 -44 41 0 11 22 1 55 -25z m-2317 -3
c-4 -36 -38 -45 -38 -10 0 27 7 37 27 37 10 0 13 -9 11 -27z m-60 -10 c-2 -20
-9 -29 -25 -31 -19 -3 -23 1 -23 21 0 25 11 35 38 36 9 1 12 -9 10 -26z m2192
-19 c0 -1 -13 -4 -30 -6 -27 -4 -30 -2 -30 24 l0 29 30 -23 c17 -12 30 -23 30
-24z m-2260 6 c0 -23 -4 -30 -20 -30 -36 0 -25 55 13 59 4 1 7 -12 7 -29z
m-64 -26 c-3 -8 -12 -14 -21 -14 -22 0 -20 48 3 52 18 4 27 -14 18 -38z m2118
-5 c-3 -5 -14 -9 -25 -9 -14 0 -19 7 -19 25 0 25 1 25 25 9 14 -9 22 -20 19
-25z m-2184 6 c0 -18 -5 -25 -20 -25 -15 0 -20 7 -20 25 0 18 5 25 20 25 15 0
20 -7 20 -25z m-60 -10 c0 -18 -5 -25 -20 -25 -15 0 -20 7 -20 25 0 18 5 25
20 25 15 0 20 -7 20 -25z m-62 -7 c-4 -27 -28 -36 -28 -10 0 20 8 32 22 32 5
0 8 -10 6 -22z m2109 2 l26 -20 -32 0 c-24 0 -31 4 -31 20 0 11 3 20 6 20 3 0
17 -9 31 -20z m-2207 -15 c0 -16 -6 -25 -15 -25 -28 0 -18 40 13 49 1 1 2 -10
2 -24z m40 21 c0 -3 -4 -8 -10 -11 -5 -3 -10 -1 -10 4 0 6 5 11 10 11 6 0 10
-2 10 -4z m2010 -43 c0 -2 -13 -3 -30 -3 -25 0 -30 4 -30 25 l0 26 30 -23 c17
-12 30 -23 30 -25z m2020 27 c0 -16 -7 -20 -35 -20 -28 0 -35 4 -35 20 0 16 7
20 35 20 28 0 35 -4 35 -20z m210 5 c0 -10 -11 -15 -35 -15 -24 0 -35 5 -35
15 0 10 11 15 35 15 24 0 35 -5 35 -15z m-4330 -20 c0 -14 -4 -25 -10 -25 -5
0 -10 11 -10 25 0 14 5 25 10 25 6 0 10 -11 10 -25z m3940 5 c0 -16 -7 -20
-30 -20 -23 0 -30 4 -30 20 0 16 7 20 30 20 23 0 30 -4 30 -20z m-3993 -22
c-3 -7 -5 -2 -5 12 0 14 2 19 5 13 2 -7 2 -19 0 -25z m3585 2 l17 -30 -34 0
c-32 0 -35 2 -35 30 0 40 29 40 52 0z m-1630 6 c20 -15 14 -26 -14 -26 -11 0
-18 7 -18 20 0 23 8 25 32 6z m1489 -28 c8 -15 6 -18 -16 -18 -21 0 -25 4 -25
31 0 27 2 30 16 19 8 -8 20 -22 25 -32z m-1646 2 c18 -20 17 -20 -8 -20 -20 0
-27 5 -27 20 0 11 4 20 8 20 5 0 17 -9 27 -20z m1335 -32 c0 -4 -11 -8 -25 -8
-21 0 -25 5 -25 32 l0 31 25 -23 c14 -13 25 -27 25 -32z m167 33 c15 -23 8
-31 -29 -31 -23 0 -28 4 -28 25 0 19 5 25 23 25 12 0 28 -9 34 -19z m-398 -25
c32 -33 32 -33 9 -40 -50 -13 -58 -8 -58 34 0 22 4 40 8 40 4 0 23 -15 41 -34z
m-1270 10 c9 -11 8 -15 -5 -20 -23 -9 -24 -8 -24 14 0 23 13 26 29 6z m-151
-37 c-24 -16 -38 -9 -38 16 0 25 0 25 26 9 19 -13 22 -19 12 -25z m1236 -8
c19 -21 19 -21 -17 -21 -34 0 -37 2 -37 30 0 26 3 29 18 21 9 -5 26 -19 36
-30z m-1359 -1 c3 -6 -5 -10 -19 -10 -19 0 -26 5 -26 20 0 17 3 19 19 10 11
-5 23 -15 26 -20z m1169 -19 c19 -21 19 -21 -17 -21 -34 0 -37 2 -37 30 0 26
3 29 18 21 9 -5 26 -19 36 -30z m-1314 -2 c0 -18 -18 -9 -23 12 -4 16 -3 18 9
8 8 -6 14 -15 14 -20z m1095 -9 l29 -30 -32 0 c-29 0 -32 3 -32 30 0 17 1 30
3 30 2 0 16 -13 32 -30z m-1205 -5 c0 -3 -9 -5 -20 -5 -11 0 -20 7 -20 15 0
13 4 14 20 5 11 -6 20 -13 20 -15z m-156 -17 c-10 -16 -34 -7 -34 12 0 17 3
19 19 8 11 -7 17 -16 15 -20z m1201 -19 c-4 -5 -17 -9 -31 -9 -20 0 -24 5 -24
31 l0 30 30 -21 c17 -12 28 -26 25 -31z m-182 -21 c-36 -14 -43 -9 -43 29 l0
37 30 -29 c27 -26 29 -30 13 -37z m-1143 37 c10 -12 10 -15 -4 -15 -9 0 -16 7
-16 15 0 8 2 15 4 15 2 0 9 -7 16 -15z m-125 -15 c18 -19 17 -20 -3 -20 -15 0
-22 6 -22 20 0 11 2 20 3 20 2 0 12 -9 22 -20z m-110 -10 c18 -19 17 -20 -3
-20 -15 0 -22 6 -22 20 0 11 2 20 3 20 2 0 12 -9 22 -20z m1245 -14 c11 -14 8
-16 -19 -16 -27 0 -31 4 -31 25 0 22 3 24 18 16 10 -5 24 -17 32 -25z m-1350
-1 c10 -13 9 -15 -9 -15 -12 0 -21 6 -21 15 0 8 4 15 9 15 5 0 14 -7 21 -15z
m1158 -26 c-24 -16 -38 -9 -38 16 0 25 0 25 26 9 19 -13 22 -19 12 -25z
m-1248 6 c0 -3 -9 -5 -20 -5 -11 0 -20 7 -20 15 0 13 4 14 20 5 11 -6 20 -13
20 -15z m1105 -5 c18 -20 17 -20 -8 -20 -20 0 -27 5 -27 20 0 11 4 20 8 20 5
0 17 -9 27 -20z m-1315 -5 c10 -12 10 -15 -4 -15 -9 0 -16 7 -16 15 0 8 2 15
4 15 2 0 9 -7 16 -15z m95 6 c3 -5 1 -12 -5 -16 -5 -3 -10 1 -10 9 0 18 6 21
15 7z m1104 -28 c2 -2 -8 -3 -22 -3 -21 0 -27 5 -27 22 0 21 0 21 23 2 12 -10
24 -20 26 -21z m-154 7 c18 -19 17 -20 -3 -20 -15 0 -22 6 -22 20 0 11 2 20 3
20 2 0 12 -9 22 -20z m-1140 0 c3 -5 1 -10 -4 -10 -6 0 -11 5 -11 10 0 6 2 10
4 10 3 0 8 -4 11 -10z m1005 -15 l23 -25 -26 0 c-22 0 -27 5 -27 25 0 14 1 25
3 25 2 0 14 -11 27 -25z m-1105 -5 c3 -5 1 -10 -4 -10 -6 0 -11 5 -11 10 0 6
2 10 4 10 3 0 8 -4 11 -10z m970 -10 c18 -19 17 -20 -3 -20 -15 0 -22 6 -22
20 0 11 2 20 3 20 2 0 12 -9 22 -20z m5955 10 c63 -6 130 -13 149 -16 l33 -7
-28 -17 c-16 -9 -93 -56 -172 -104 l-143 -87 -72 10 c-236 33 -392 27 -1742
-73 -555 -41 -1116 -80 -1245 -87 -289 -14 -4524 -158 -4528 -154 -2 2 1 13 8
24 13 24 48 28 64 6 10 -13 252 -7 2131 55 1167 39 2139 71 2162 73 22 1 47 7
54 14 57 45 207 95 419 138 149 31 679 106 945 134 736 78 1634 120 1965 91z
m-7015 -10 c3 -5 1 -10 -4 -10 -6 0 -11 5 -11 10 0 6 2 10 4 10 3 0 8 -4 11
-10z m955 -32 c0 -4 -9 -8 -20 -8 -15 0 -20 7 -20 27 0 25 0 26 20 8 11 -10
20 -22 20 -27z m-150 2 c9 -16 8 -20 -5 -20 -8 0 -15 9 -15 20 0 11 2 20 5 20
2 0 9 -9 15 -20z m-115 -10 c18 -19 17 -20 -3 -20 -15 0 -22 6 -22 20 0 11 2
20 3 20 2 0 12 -9 22 -20z m-216 -22 c12 -15 11 -18 -3 -18 -10 0 -16 8 -16
22 0 12 1 19 3 17 1 -2 9 -12 16 -21z m101 7 c10 -12 10 -15 -4 -15 -9 0 -16
7 -16 15 0 8 2 15 4 15 2 0 9 -7 16 -15z m1604 -20 c9 -13 16 -41 16 -62 1
-50 37 -93 79 -93 16 0 31 5 33 11 7 20 1181 70 1573 67 313 -3 336 -4 285
-17 -30 -7 -98 -16 -152 -18 -84 -5 -97 -8 -101 -24 -7 -26 -37 -24 -37 2 0
20 -4 21 -46 15 -26 -3 -59 -6 -75 -6 -25 0 -28 -4 -31 -37 l-3 -38 -660 -26
c-363 -15 -717 -29 -787 -32 l-128 -6 0 115 c0 88 -3 115 -12 112 -7 -3 -14
-16 -16 -30 -4 -30 -30 -38 -131 -38 -36 0 -83 -3 -103 -6 l-38 -7 0 -78 0
-79 -55 0 -55 0 0 36 0 37 -37 -7 c-21 -3 -57 -6 -80 -6 -42 0 -43 -1 -43 -35
0 -24 -5 -35 -15 -35 -11 0 -15 11 -15 35 l0 36 -62 -3 -63 -3 -3 -37 c-4 -51
-32 -53 -32 -3 l0 35 -65 0 -65 0 0 -34 c0 -21 -6 -36 -15 -40 -12 -4 -15 3
-15 35 0 33 -3 40 -16 35 -9 -3 -33 -6 -55 -6 -38 0 -39 -1 -39 -35 0 -24 -5
-35 -15 -35 -10 0 -15 11 -15 35 0 34 -1 35 -39 35 -21 0 -53 -3 -70 -6 -27
-6 -31 -10 -31 -40 0 -19 -4 -34 -10 -34 -5 0 -10 16 -10 35 l0 35 -60 0 -60
0 0 -35 c0 -24 -5 -35 -15 -35 -11 0 -15 11 -15 36 0 33 -2 36 -22 30 -13 -3
-31 -6 -40 -6 -14 0 -18 -8 -18 -35 0 -24 -5 -35 -15 -35 -10 0 -15 11 -15 35
0 33 -2 35 -35 35 -33 0 -35 -2 -35 -35 0 -19 -4 -35 -10 -35 -5 0 -10 16 -10
35 0 35 0 35 -45 35 l-45 0 0 -40 c0 -22 -4 -40 -10 -40 -5 0 -10 16 -10 35 0
35 -1 35 -43 35 l-43 0 4 -35 c2 -20 0 -35 -6 -35 -6 0 -12 15 -14 33 -3 31
-4 32 -50 33 -48 1 -48 1 -48 -32 0 -19 -4 -34 -10 -34 -5 0 -10 14 -10 30 0
29 -1 30 -50 30 l-50 0 0 -35 c0 -19 -4 -35 -10 -35 -5 0 -10 16 -10 36 l0 35
-42 -3 c-40 -3 -43 -5 -49 -38 -4 -19 -7 -27 -8 -17 -2 26 -51 23 -51 -3 0
-13 -7 -20 -20 -20 -18 0 -20 7 -20 59 l0 59 55 4 c35 3 60 11 68 21 6 9 28
17 47 19 28 2 36 8 38 26 5 31 22 28 22 -5 0 -14 3 -23 7 -20 3 4 17 -3 30
-15 22 -21 33 -23 126 -20 99 2 103 3 129 32 15 17 32 30 38 30 5 0 10 11 10
25 0 16 6 25 15 25 9 0 15 -9 15 -25 0 -22 4 -25 34 -25 18 0 48 3 65 6 26 6
31 11 31 35 0 19 5 29 15 29 10 0 15 -10 15 -30 0 -19 5 -30 14 -30 7 0 20
-10 28 -22 15 -22 21 -23 132 -20 65 2 127 7 140 11 27 11 67 82 49 88 -18 6
-16 33 2 33 10 0 15 -10 15 -30 l0 -31 68 3 67 3 3 33 c4 43 22 41 22 -3 0
-26 4 -35 17 -35 9 0 36 -9 60 -21 41 -20 49 -20 165 -10 119 11 139 18 166
54 9 12 27 17 58 17 43 0 44 0 44 34 0 21 6 36 15 40 12 4 15 -3 15 -34 0 -43
4 -45 59 -34 27 6 31 10 31 40 0 24 5 34 15 34 11 0 15 -11 15 -36 0 -34 1
-35 33 -32 29 3 32 6 35 41 4 47 22 49 22 2 0 -33 2 -35 35 -35 34 0 35 1 35
39 0 40 0 40 43 44 23 2 47 4 53 5 7 1 19 -9 28 -23z m-1784 0 c10 -12 10 -15
-4 -15 -9 0 -16 7 -16 15 0 8 2 15 4 15 2 0 9 -7 16 -15z m-104 -22 c-7 -7
-26 7 -26 19 0 6 6 6 15 -2 9 -7 13 -15 11 -17z m-96 2 c10 -12 10 -15 -4 -15
-9 0 -16 7 -16 15 0 8 2 15 4 15 2 0 9 -7 16 -15z m1440 -15 c0 -5 -7 -10 -15
-10 -8 0 -15 5 -15 10 0 6 7 10 15 10 8 0 15 -4 15 -10z m0 -40 c0 -16 -43
-50 -64 -51 -12 0 -61 -4 -111 -8 -97 -9 -149 0 -159 26 -4 9 -4 18 -2 20 17
17 336 29 336 13z m-600 -47 c0 -5 -7 -17 -16 -28 -13 -18 -29 -20 -135 -23
-108 -3 -122 -2 -134 15 -20 25 -18 31 8 36 39 8 277 7 277 0z m-580 -37 c0
-32 -42 -46 -137 -46 -82 0 -93 2 -103 20 -8 15 -8 21 2 25 19 6 82 11 166 13
57 2 72 -1 72 -12z m6242 -2 c54 -3 100 -9 103 -13 2 -5 -60 -51 -139 -104
l-144 -97 -39 14 c-101 36 -199 39 -1069 33 -726 -4 -1360 -19 -1754 -41 -92
-6 -94 -5 -75 13 18 16 49 20 255 30 202 10 824 54 1990 142 289 21 627 37
720 32 30 -2 99 -6 152 -9z m-6642 -13 c0 -6 -10 -17 -22 -25 -40 -28 -178
-17 -178 14 0 5 35 11 78 13 42 1 87 4 100 5 12 1 22 -2 22 -7z m2058 -3 c-3
-7 -14 -14 -26 -16 -18 -3 -22 -10 -22 -36 l0 -33 -61 -7 c-34 -3 -65 -3 -70
0 -5 3 -9 27 -9 55 l0 49 96 0 c72 0 95 -3 92 -12z m-2248 -115 l0 -63 -30 0
c-28 0 -30 2 -30 40 0 26 -6 42 -16 48 -15 8 -15 13 7 51 l23 41 23 -27 c18
-22 22 -41 23 -90z m3810 48 c-31 -16 -110 -20 -777 -41 -409 -13 -746 -20
-750 -17 -3 4 -4 9 -1 12 5 6 1316 62 1468 63 l95 1 -35 -18z m-1610 -56 c0
-12 -14 -15 -70 -15 -81 0 -95 17 -17 23 28 2 60 4 70 5 9 1 17 -5 17 -13z
m-225 -5 c3 -5 -4 -11 -17 -14 -27 -5 -1682 -57 -1748 -55 -25 1 349 18 830
39 481 20 887 38 902 39 15 0 30 -3 33 -9z m1670 -54 c-16 -11 -261 -20 -1260
-45 -682 -17 -1269 -31 -1305 -30 -83 2 2259 86 2445 88 121 1 137 -1 120 -13z
m-3812 -3 c-29 -2 -77 -2 -105 0 -29 2 -6 3 52 3 58 0 81 -1 53 -3z m6707 -13
c30 -6 58 -15 63 -19 4 -4 -39 -41 -95 -82 -56 -41 -208 -155 -338 -253 -219
-167 -239 -180 -289 -187 -33 -5 -71 -19 -100 -38 -92 -61 -131 -74 -207 -73
-38 1 -90 9 -115 17 -24 9 -88 24 -141 34 -89 17 -98 17 -103 2 -4 -13 -20
-16 -77 -18 -107 -2 -344 16 -413 32 -118 27 -174 33 -186 19 -6 -7 -8 -17 -6
-21 3 -5 -23 -7 -57 -5 -34 2 -105 -3 -156 -12 -198 -34 -1268 -15 -1970 35
-85 6 -517 15 -960 19 -852 8 -901 10 -1440 70 -101 11 -222 20 -270 20 l-86
0 -41 43 c-22 23 -55 64 -72 90 -38 55 -95 177 -87 184 3 3 958 29 2123 58
1165 30 2395 63 2733 75 821 28 771 27 1550 24 479 -1 702 -6 740 -14z m-6452
-7 c-32 -2 -84 -2 -115 0 -32 2 -6 3 57 3 63 0 89 -1 58 -3z m-285 -10 c-24
-2 -62 -2 -85 0 -24 2 -5 4 42 4 47 0 66 -2 43 -4z m1105 -50 c-32 -2 -86 -2
-120 0 -35 2 -9 3 57 3 66 0 94 -1 63 -3z m-990 -443 c97 -11 336 -34 531 -50
345 -29 370 -30 1005 -30 358 0 728 -5 821 -10 661 -38 1026 -50 1485 -50 399
0 504 3 576 16 60 10 113 13 162 9 69 -6 74 -6 79 14 6 24 21 23 137 -6 70
-17 245 -33 374 -33 56 0 116 -6 149 -16 44 -13 57 -14 63 -3 5 6 6 18 3 25
-6 16 46 9 132 -18 33 -10 89 -21 125 -24 77 -7 140 13 227 73 48 33 63 38
124 41 l70 4 -7 -26 c-5 -22 -3 -28 14 -33 12 -3 24 -14 27 -24 5 -13 13 -18
28 -15 55 11 106 14 147 7 41 -6 38 -8 -47 -15 -82 -7 -93 -10 -93 -27 0 -14
7 -19 28 -20 46 -2 -62 -17 -238 -33 -261 -24 -278 -24 -415 -9 -99 11 -193
13 -392 9 -220 -5 -263 -4 -263 7 0 18 -88 27 -252 27 -74 0 -118 4 -120 11
-10 30 -457 36 -593 7 -135 -28 -1011 -9 -1480 32 -438 39 -469 40 -473 17 -2
-12 10 -20 45 -31 47 -14 46 -15 -97 -15 -83 -1 -215 7 -310 18 -91 11 -255
22 -365 26 -273 8 -315 12 -315 35 0 24 -24 26 -645 50 -415 17 -522 24 -531
35 -7 10 -46 17 -120 22 l-109 8 75 6 c153 11 265 8 438 -11z"/>
<path d="M5908 2533 c57 -2 147 -2 200 0 53 1 7 3 -103 3 -110 0 -154 -2 -97
-3z"/>
<path d="M5178 2473 c12 -2 30 -2 40 0 9 3 -1 5 -23 4 -22 0 -30 -2 -17 -4z"/>
<path d="M5083 2463 c9 -2 25 -2 35 0 9 3 1 5 -18 5 -19 0 -27 -2 -17 -5z"/>
<path d="M5280 2155 c0 -30 5 -55 10 -55 6 0 10 25 10 55 0 30 -4 55 -10 55
-5 0 -10 -25 -10 -55z"/>
<path d="M5190 2145 c0 -30 5 -55 10 -55 6 0 10 25 10 55 0 30 -4 55 -10 55
-5 0 -10 -25 -10 -55z"/>
<path d="M5230 2145 c0 -30 5 -55 10 -55 6 0 10 25 10 55 0 30 -4 55 -10 55
-5 0 -10 -25 -10 -55z"/>
<path d="M5094 2176 c-9 -22 0 -91 11 -89 14 4 19 103 5 103 -6 0 -13 -6 -16
-14z"/>
<path d="M5140 2140 c0 -27 5 -50 10 -50 6 0 10 23 10 50 0 28 -4 50 -10 50
-5 0 -10 -22 -10 -50z"/>
<path d="M4937 2173 c-11 -10 -8 -103 3 -103 6 0 10 25 10 55 0 56 -1 60 -13
48z"/>
<path d="M5050 2130 c0 -27 5 -50 10 -50 6 0 10 23 10 50 0 28 -4 50 -10 50
-5 0 -10 -22 -10 -50z"/>
<path d="M4840 2120 c0 -27 5 -50 10 -50 6 0 10 23 10 50 0 28 -4 50 -10 50
-5 0 -10 -22 -10 -50z"/>
<path d="M4890 2120 c0 -27 5 -50 10 -50 6 0 10 23 10 50 0 28 -4 50 -10 50
-5 0 -10 -22 -10 -50z"/>
<path d="M4750 2110 c0 -27 5 -50 10 -50 6 0 10 23 10 50 0 28 -4 50 -10 50
-5 0 -10 -22 -10 -50z"/>
<path d="M4800 2110 c0 -27 5 -50 10 -50 6 0 10 23 10 50 0 28 -4 50 -10 50
-5 0 -10 -22 -10 -50z"/>
<path d="M4590 2100 c0 -38 4 -50 15 -50 11 0 15 12 15 50 0 38 -4 50 -15 50
-11 0 -15 -12 -15 -50z"/>
<path d="M4650 2099 c0 -31 4 -48 10 -44 6 3 10 26 10 51 0 24 -4 44 -10 44
-5 0 -10 -23 -10 -51z"/>
<path d="M4450 2090 c0 -27 5 -50 10 -50 6 0 10 23 10 50 0 28 -4 50 -10 50
-5 0 -10 -22 -10 -50z"/>
<path d="M4490 2090 c0 -27 5 -50 10 -50 6 0 10 23 10 50 0 28 -4 50 -10 50
-5 0 -10 -22 -10 -50z"/>
<path d="M4540 2095 c0 -25 5 -45 10 -45 6 0 10 20 10 45 0 25 -4 45 -10 45
-5 0 -10 -20 -10 -45z"/>
<path d="M4173 2070 c0 -30 2 -43 4 -27 2 15 2 39 0 55 -2 15 -4 2 -4 -28z"/>
<path d="M4213 2075 c0 -27 2 -38 4 -22 2 15 2 37 0 50 -2 12 -4 0 -4 -28z"/>
<path d="M4303 2075 c0 -27 2 -38 4 -22 2 15 2 37 0 50 -2 12 -4 0 -4 -28z"/>
<path d="M4353 2080 c0 -25 2 -35 4 -22 2 12 2 32 0 45 -2 12 -4 2 -4 -23z"/>
<path d="M1716 1984 c-4 -15 -5 -28 -3 -31 7 -7 57 8 57 17 0 5 3 15 6 24 5
12 -1 16 -24 16 -24 0 -31 -5 -36 -26z"/>
<path d="M1630 1993 c-19 -3 -38 -10 -42 -16 -6 -9 -8 -9 -8 1 0 19 -28 14
-50 -8 -28 -28 -25 -40 9 -40 20 0 31 6 34 18 4 15 5 15 6 0 1 -12 7 -15 24
-10 12 3 25 10 29 16 5 7 8 7 8 -2 0 -17 40 -6 58 16 25 32 17 35 -68 25z"/>
<path d="M5258 1883 c-12 -3 -18 -14 -18 -34 l0 -30 83 3 82 3 3 33 3 32 -68
-1 c-37 -1 -76 -3 -85 -6z"/>
<path d="M5057 1873 c-4 -3 -7 -20 -7 -36 0 -30 0 -30 46 -23 26 3 60 6 75 6
26 0 29 4 29 30 l0 30 -68 0 c-38 0 -72 -3 -75 -7z"/>
<path d="M4877 1863 c-4 -3 -7 -17 -7 -30 0 -22 3 -23 70 -23 l70 0 0 30 0 30
-63 0 c-35 0 -67 -3 -70 -7z"/>
<path d="M4563 1852 c-49 -3 -53 -5 -53 -28 0 -24 2 -25 57 -22 47 2 58 6 61
22 5 26 -6 31 -65 28z"/>
<path d="M4650 1829 l0 -32 53 7 c28 3 67 6 85 6 27 0 32 3 32 25 0 25 -1 25
-85 25 l-85 0 0 -31z"/>
<path d="M4320 1825 c0 -25 1 -25 80 -25 79 0 80 0 80 25 0 25 -1 25 -80 25
-79 0 -80 0 -80 -25z"/>
<path d="M4079 1833 c-31 -3 -36 -7 -32 -24 4 -16 14 -19 59 -19 51 0 54 1 54
25 0 27 0 26 -81 18z"/>
<path d="M4180 1815 c0 -24 2 -25 65 -25 63 0 65 1 65 25 0 24 -2 25 -65 25
-63 0 -65 -1 -65 -25z"/>
<path d="M3920 1810 c0 -18 7 -20 55 -20 48 0 55 2 55 20 0 18 -7 20 -55 20
-48 0 -55 -2 -55 -20z"/>
<path d="M4958 1513 c-22 -3 -28 -10 -28 -29 0 -21 4 -24 41 -24 38 0 40 2 37
27 -3 29 -9 32 -50 26z"/>
<path d="M5190 1490 c0 -20 5 -30 15 -30 10 0 15 10 15 30 0 20 -5 30 -15 30
-10 0 -15 -10 -15 -30z"/>
<path d="M5230 1490 c0 -20 5 -30 15 -30 10 0 15 10 15 30 0 20 -5 30 -15 30
-10 0 -15 -10 -15 -30z"/>
<path d="M5416 1512 c-3 -3 -6 -16 -6 -29 0 -20 5 -23 40 -23 37 0 40 2 40 29
0 26 -3 29 -34 29 -19 0 -37 -3 -40 -6z"/>
<path d="M5642 1493 c4 -39 28 -42 28 -4 0 21 -5 31 -16 31 -11 0 -14 -8 -12
-27z"/>
<path d="M5680 1495 c0 -18 5 -25 20 -25 15 0 20 7 20 25 0 18 -5 25 -20 25
-15 0 -20 -7 -20 -25z"/>
<path d="M4300 1480 c0 -20 5 -30 15 -30 10 0 15 10 15 30 0 20 -5 30 -15 30
-10 0 -15 -10 -15 -30z"/>
<path d="M4340 1480 c0 -20 5 -30 15 -30 10 0 15 10 15 30 0 20 -5 30 -15 30
-10 0 -15 -10 -15 -30z"/>
<path d="M4497 1503 c-4 -3 -7 -17 -7 -30 0 -20 5 -23 40 -23 38 0 40 2 40 30
0 27 -3 30 -33 30 -19 0 -37 -3 -40 -7z"/>
<path d="M4700 1481 c0 -28 2 -30 40 -29 37 0 40 2 40 29 0 27 -3 29 -40 29
-38 0 -40 -2 -40 -29z"/>
<path d="M4140 1480 c0 -11 7 -20 15 -20 8 0 15 9 15 20 0 11 -7 20 -15 20 -8
0 -15 -9 -15 -20z"/>
<path d="M3230 1465 c0 -16 6 -25 15 -25 9 0 15 9 15 25 0 16 -6 25 -15 25 -9
0 -15 -9 -15 -25z"/>
<path d="M3327 1484 c-16 -16 -7 -44 14 -44 15 0 20 5 17 22 -3 22 -19 33 -31
22z"/>
<path d="M3550 1470 c0 -13 7 -20 20 -20 13 0 20 7 20 20 0 13 -7 20 -20 20
-13 0 -20 -7 -20 -20z"/>
<path d="M3660 1465 c0 -16 6 -25 15 -25 9 0 15 9 15 25 0 16 -6 25 -15 25 -9
0 -15 -9 -15 -25z"/>
<path d="M3760 1470 c0 -11 7 -20 15 -20 8 0 15 9 15 20 0 11 -7 20 -15 20 -8
0 -15 -9 -15 -20z"/>
<path d="M2567 1473 c-13 -12 -7 -33 8 -33 8 0 15 9 15 20 0 20 -11 26 -23 13z"/>
<path d="M2637 1473 c-13 -12 -7 -33 8 -33 8 0 15 9 15 20 0 20 -11 26 -23 13z"/>
<path d="M2700 1461 c0 -12 6 -21 16 -21 9 0 14 7 12 17 -5 25 -28 28 -28 4z"/>
<path d="M2765 1470 c-7 -12 2 -30 16 -30 5 0 9 9 9 20 0 21 -15 27 -25 10z"/>
<path d="M2830 1460 c0 -11 7 -20 15 -20 8 0 15 9 15 20 0 11 -7 20 -15 20 -8
0 -15 -9 -15 -20z"/>
<path d="M2900 1460 c0 -11 7 -20 15 -20 8 0 15 9 15 20 0 11 -7 20 -15 20 -8
0 -15 -9 -15 -20z"/>
<path d="M2960 1460 c0 -11 7 -20 15 -20 8 0 15 9 15 20 0 11 -7 20 -15 20 -8
0 -15 -9 -15 -20z"/>
<path d="M3032 1463 c5 -25 28 -28 28 -4 0 12 -6 21 -16 21 -9 0 -14 -7 -12
-17z"/>
<path d="M3100 1459 c0 -24 23 -21 28 4 2 10 -3 17 -12 17 -10 0 -16 -9 -16
-21z"/>
<path d="M2030 1455 c0 -8 5 -15 10 -15 6 0 10 7 10 15 0 8 -4 15 -10 15 -5 0
-10 -7 -10 -15z"/>
<path d="M2090 1455 c0 -8 5 -15 10 -15 6 0 10 7 10 15 0 8 -4 15 -10 15 -5 0
-10 -7 -10 -15z"/>
<path d="M2150 1460 c0 -5 5 -10 10 -10 6 0 10 5 10 10 0 6 -4 10 -10 10 -5 0
-10 -4 -10 -10z"/>
<path d="M2235 1460 c-7 -12 2 -30 16 -30 5 0 9 9 9 20 0 21 -15 27 -25 10z"/>
<path d="M2300 1450 c0 -11 7 -20 15 -20 8 0 15 9 15 20 0 11 -7 20 -15 20 -8
0 -15 -9 -15 -20z"/>
<path d="M2370 1450 c0 -11 7 -20 15 -20 8 0 15 9 15 20 0 11 -7 20 -15 20 -8
0 -15 -9 -15 -20z"/>
<path d="M2430 1455 c0 -8 7 -15 15 -15 8 0 15 7 15 15 0 8 -7 15 -15 15 -8 0
-15 -7 -15 -15z"/>
<path d="M2500 1455 c0 -8 7 -15 15 -15 8 0 15 7 15 15 0 8 -7 15 -15 15 -8 0
-15 -7 -15 -15z"/>
<path d="M1545 1450 c-3 -5 1 -10 10 -10 9 0 13 5 10 10 -3 6 -8 10 -10 10 -2
0 -7 -4 -10 -10z"/>
<path d="M1605 1450 c-3 -5 -1 -10 4 -10 6 0 11 5 11 10 0 6 -2 10 -4 10 -3 0
-8 -4 -11 -10z"/>
<path d="M1665 1450 c-3 -5 1 -10 10 -10 9 0 13 5 10 10 -3 6 -8 10 -10 10 -2
0 -7 -4 -10 -10z"/>
<path d="M1725 1450 c-3 -5 -1 -10 4 -10 6 0 11 5 11 10 0 6 -2 10 -4 10 -3 0
-8 -4 -11 -10z"/>
<path d="M1780 1450 c0 -5 5 -10 10 -10 6 0 10 5 10 10 0 6 -4 10 -10 10 -5 0
-10 -4 -10 -10z"/>
<path d="M1840 1450 c0 -5 5 -10 10 -10 6 0 10 5 10 10 0 6 -4 10 -10 10 -5 0
-10 -4 -10 -10z"/>
<path d="M1910 1450 c0 -5 5 -10 10 -10 6 0 10 5 10 10 0 6 -4 10 -10 10 -5 0
-10 -4 -10 -10z"/>
<path d="M1970 1450 c0 -5 5 -10 10 -10 6 0 10 5 10 10 0 6 -4 10 -10 10 -5 0
-10 -4 -10 -10z"/>
<path d="M1095 1440 c-3 -5 1 -10 9 -10 9 0 16 5 16 10 0 6 -4 10 -9 10 -6 0
-13 -4 -16 -10z"/>
<path d="M1160 1440 c0 -5 5 -10 10 -10 6 0 10 5 10 10 0 6 -4 10 -10 10 -5 0
-10 -4 -10 -10z"/>
<path d="M1215 1440 c-3 -5 1 -10 9 -10 9 0 16 5 16 10 0 6 -4 10 -9 10 -6 0
-13 -4 -16 -10z"/>
<path d="M1280 1440 c0 -5 5 -10 10 -10 6 0 10 5 10 10 0 6 -4 10 -10 10 -5 0
-10 -4 -10 -10z"/>
<path d="M1330 1440 c0 -5 7 -10 15 -10 8 0 15 5 15 10 0 6 -7 10 -15 10 -8 0
-15 -4 -15 -10z"/>
<path d="M1390 1440 c0 -5 7 -10 16 -10 8 0 12 5 9 10 -3 6 -10 10 -16 10 -5
0 -9 -4 -9 -10z"/>
<path d="M4925 1312 c-3 -3 -5 -16 -5 -29 0 -20 5 -23 40 -23 38 0 40 2 40 30
0 27 -3 29 -35 28 -19 -1 -37 -4 -40 -6z"/>
<path d="M3046 1301 c-4 -7 -5 -15 -2 -18 9 -9 19 4 14 18 -4 11 -6 11 -12 0z"/>
<path d="M3100 1295 c0 -8 5 -15 10 -15 6 0 10 7 10 15 0 8 -4 15 -10 15 -5 0
-10 -7 -10 -15z"/>
<path d="M3166 1301 c-4 -7 -5 -15 -2 -18 9 -9 19 4 14 18 -4 11 -6 11 -12 0z"/>
<path d="M3220 1295 c0 -8 5 -15 10 -15 6 0 10 7 10 15 0 8 -4 15 -10 15 -5 0
-10 -7 -10 -15z"/>
<path d="M3280 1295 c0 -8 5 -15 10 -15 6 0 10 7 10 15 0 8 -4 15 -10 15 -5 0
-10 -7 -10 -15z"/>
<path d="M3550 1290 c0 -13 7 -20 20 -20 13 0 20 7 20 20 0 13 -7 20 -20 20
-13 0 -20 -7 -20 -20z"/>
<path d="M3660 1285 c0 -16 6 -25 15 -25 9 0 15 9 15 25 0 16 -6 25 -15 25 -9
0 -15 -9 -15 -25z"/>
<path d="M3760 1290 c0 -11 7 -20 15 -20 8 0 15 9 15 20 0 11 -7 20 -15 20 -8
0 -15 -9 -15 -20z"/>
<path d="M4130 1285 c0 -16 6 -25 15 -25 9 0 15 9 15 25 0 16 -6 25 -15 25 -9
0 -15 -9 -15 -25z"/>
<path d="M4290 1280 c0 -20 5 -30 15 -30 10 0 15 10 15 30 0 20 -5 30 -15 30
-10 0 -15 -10 -15 -30z"/>
<path d="M4330 1280 c0 -20 5 -30 15 -30 10 0 15 10 15 30 0 20 -5 30 -15 30
-10 0 -15 -10 -15 -30z"/>
<path d="M4490 1280 c0 -20 5 -30 15 -30 10 0 15 10 15 30 0 20 -5 30 -15 30
-10 0 -15 -10 -15 -30z"/>
<path d="M4530 1280 c0 -20 5 -30 15 -30 10 0 15 10 15 30 0 20 -5 30 -15 30
-10 0 -15 -10 -15 -30z"/>
<path d="M4690 1286 c0 -31 7 -35 48 -29 26 4 32 10 32 29 0 21 -5 24 -40 24
-36 0 -40 -3 -40 -24z"/>
<path d="M2320 1290 c0 -5 5 -10 10 -10 6 0 10 5 10 10 0 6 -4 10 -10 10 -5 0
-10 -4 -10 -10z"/>
<path d="M2380 1290 c0 -5 5 -10 10 -10 6 0 10 5 10 10 0 6 -4 10 -10 10 -5 0
-10 -4 -10 -10z"/>
<path d="M2440 1290 c0 -5 5 -10 10 -10 6 0 10 5 10 10 0 6 -4 10 -10 10 -5 0
-10 -4 -10 -10z"/>
<path d="M2500 1290 c0 -5 5 -10 10 -10 6 0 10 5 10 10 0 6 -4 10 -10 10 -5 0
-10 -4 -10 -10z"/>
<path d="M2560 1290 c0 -5 5 -10 10 -10 6 0 10 5 10 10 0 6 -4 10 -10 10 -5 0
-10 -4 -10 -10z"/>
<path d="M2620 1290 c0 -5 5 -10 10 -10 6 0 10 5 10 10 0 6 -4 10 -10 10 -5 0
-10 -4 -10 -10z"/>
<path d="M2680 1290 c0 -5 7 -10 15 -10 8 0 15 5 15 10 0 6 -7 10 -15 10 -8 0
-15 -4 -15 -10z"/>
<path d="M2740 1290 c0 -5 7 -10 15 -10 8 0 15 5 15 10 0 6 -7 10 -15 10 -8 0
-15 -4 -15 -10z"/>
<path d="M2800 1290 c0 -5 5 -10 10 -10 6 0 10 5 10 10 0 6 -4 10 -10 10 -5 0
-10 -4 -10 -10z"/>
<path d="M2860 1290 c0 -5 5 -10 10 -10 6 0 10 5 10 10 0 6 -4 10 -10 10 -5 0
-10 -4 -10 -10z"/>
<path d="M2920 1290 c0 -5 5 -10 10 -10 6 0 10 5 10 10 0 6 -4 10 -10 10 -5 0
-10 -4 -10 -10z"/>
<path d="M2980 1290 c0 -5 5 -10 10 -10 6 0 10 5 10 10 0 6 -4 10 -10 10 -5 0
-10 -4 -10 -10z"/>
<path d="M7783 847 c-25 -6 -45 -17 -48 -27 -4 -14 -27 -20 -111 -30 -91 -11
-138 -11 -328 3 -121 9 -349 19 -506 22 -157 2 -313 8 -347 11 -53 6 -63 4
-63 -8 0 -9 13 -18 33 -22 17 -4 208 -11 422 -17 215 -5 428 -13 475 -18 116
-13 234 -13 365 0 151 15 153 16 157 42 3 22 4 22 161 19 128 -2 157 0 157 11
0 26 -275 37 -367 14z"/>
<path d="M4735 843 c-96 -4 -610 -42 -662 -49 -28 -3 -43 -10 -43 -20 0 -18
-28 -18 341 11 325 26 511 32 435 14 -48 -11 -66 -25 -66 -50 0 -12 10 -21 26
-25 35 -9 208 1 350 20 254 34 1059 48 1109 19 17 -10 11 -12 -42 -19 -70 -7
-99 -23 -90 -47 11 -28 58 -31 189 -12 70 9 177 17 238 17 85 0 110 3 110 13
0 7 -7 16 -16 19 -23 9 -158 7 -239 -4 -101 -13 -153 -18 -132 -13 30 8 40 40
19 61 -20 20 -52 26 -208 38 -120 9 -712 -14 -914 -36 -228 -25 -373 -34 -342
-20 13 5 71 14 129 20 59 5 111 14 116 19 22 22 -2 38 -70 44 -66 7 -86 7
-238 0z"/>
<path d="M2295 820 c-82 -4 -167 -8 -187 -9 -28 -1 -38 -5 -38 -18 0 -14 14
-15 143 -9 178 8 695 16 645 10 -20 -3 -42 -12 -48 -20 -41 -48 93 -61 414
-38 143 10 283 14 369 11 110 -5 137 -3 137 7 0 14 -29 20 -150 31 -36 3 -155
-1 -265 -9 -177 -14 -366 -20 -278 -9 39 5 50 29 20 45 -26 14 -530 20 -762 8z"/>
</g>
</svg>
