<?xml version="1.0" standalone="no"?>
<!DOCTYPE svg PUBLIC "-//W3C//DTD SVG 20010904//EN"
 "http://www.w3.org/TR/2001/REC-SVG-20010904/DTD/svg10.dtd">
<svg version="1.0" xmlns="http://www.w3.org/2000/svg"
 width="512.000000pt" height="512.000000pt" viewBox="0 0 512.000000 512.000000"
 preserveAspectRatio="xMidYMid meet">

<g transform="translate(0.000000,512.000000) scale(0.100000,-0.100000)"
fill="#000000" stroke="none">
<path d="M1913 4795 c-350 -45 -677 -188 -948 -416 -299 -251 -505 -580 -599
-958 -105 -419 -57 -870 134 -1252 87 -175 225 -370 329 -467 20 -19 59 -55
86 -81 229 -216 545 -374 886 -443 100 -20 142 -23 344 -23 210 1 241 3 356
28 232 49 476 150 656 271 46 31 86 56 90 56 5 0 265 -257 578 -571 314 -313
588 -581 611 -595 115 -68 271 -26 341 94 24 40 28 58 28 122 0 64 -4 82 -27
120 -15 25 -280 298 -597 615 -314 313 -571 573 -571 577 0 4 27 48 60 99 283
431 372 969 241 1469 -63 242 -153 431 -300 630 -50 68 -83 105 -197 225 -142
149 -429 328 -648 405 -101 36 -258 76 -351 90 -121 18 -379 21 -502 5z m454
-505 c529 -87 963 -506 1079 -1040 26 -120 27 -420 1 -540 -69 -318 -238 -588
-492 -784 -259 -201 -531 -286 -869 -273 -280 11 -495 84 -720 245 -528 377
-703 1080 -416 1667 70 144 132 230 248 348 211 215 493 353 787 387 92 10
291 5 382 -10z"/>
</g>
</svg>
