<?xml version="1.0" standalone="no"?>
<!DOCTYPE svg PUBLIC "-//W3C//DTD SVG 20010904//EN"
 "http://www.w3.org/TR/2001/REC-SVG-20010904/DTD/svg10.dtd">
<svg version="1.0" xmlns="http://www.w3.org/2000/svg"
 width="512.000000pt" height="512.000000pt" viewBox="0 0 512.000000 512.000000"
 preserveAspectRatio="xMidYMid meet">

<g transform="translate(0.000000,512.000000) scale(0.100000,-0.100000)"
fill="#000000" stroke="none">
<path d="M2425 4959 c-353 -27 -692 -225 -889 -519 -265 -394 -275 -901 -25
-1306 69 -113 243 -292 354 -363 319 -207 700 -256 1054 -135 407 140 712 500
787 929 24 136 15 368 -19 498 -54 204 -156 384 -303 537 -250 259 -592 387
-959 359z m300 -218 c244 -50 467 -196 610 -396 60 -83 128 -230 156 -335 33
-119 33 -366 1 -482 -76 -279 -247 -499 -492 -636 -85 -48 -252 -99 -365 -112
-296 -35 -597 71 -810 285 -125 124 -221 294 -266 470 -34 132 -32 340 3 475
78 292 265 520 533 650 90 44 207 81 290 93 84 12 255 6 340 -12z"/>
<path d="M2290 2255 c-654 -82 -1205 -481 -1490 -1078 -124 -261 -200 -584
-200 -853 0 -92 1 -97 29 -125 l29 -29 1869 0 1869 0 29 30 c27 29 28 31 26
137 -9 608 -300 1190 -773 1548 -394 298 -894 431 -1388 370z m354 -195 c306
-22 581 -114 821 -275 456 -306 721 -764 780 -1352 l6 -63 -1725 0 -1726 0 6
48 c17 153 28 220 55 330 180 732 788 1254 1529 1312 52 4 100 8 105 8 6 1 73
-3 149 -8z"/>
</g>
</svg>
